PathFileType	4	(X/Y/Z)	26_1_12_p1_0-684.trc
DataRate	CameraRate	NumFrames	NumMarkers	Units	OrigDataRate	OrigDataStartFrame	OrigNumFrames
60.0	60.0	6	27	m	60.0	428	685
Frame#	Time	RHip			RKnee			RAnkle			RBigToe			RSmallToe			RHeel			LHip			LKnee			LAnkle			LBigToe			LSmallToe			LHeel			Neck			Head			Nose			RShoulder			RElbow			RWrist			RThumb			RIndex			RPinky			LShoulder			LElbow			LWrist			LThumb			LIndex			LPinky			
		X1	Y1	Z1	X2	Y2	Z2	X3	Y3	Z3	X4	Y4	Z4	X5	Y5	Z5	X6	Y6	Z6	X7	Y7	Z7	X8	Y8	Z8	X9	Y9	Z9	X10	Y10	Z10	X11	Y11	Z11	X12	Y12	Z12	X13	Y13	Z13	X14	Y14	Z14	X15	Y15	Z15	X16	Y16	Z16	X17	Y17	Z17	X18	Y18	Z18	X19	Y19	Z19	X20	Y20	Z20	X21	Y21	Z21	X22	Y22	Z22	X23	Y23	Z23	X24	Y24	Z24	X25	Y25	Z25	X26	Y26	Z26	X27	Y27	Z27	
428	7.133333333333334	0.29474391852677745	0.7561855377144361	0.9037485435534308	0.2581200753940653	0.9334009840697279	1.2717684568545418	0.24312575175032675	1.22495503645476	1.6480520977737252	0.2136168621142022	0.9443644765611383	1.681628650499149	0.2623234886442257	1.0229020609794932	1.6895134866911032	0.24271557555609863	1.3133361505699452	1.6819223802869558	0.06845907479280643	0.8159701747396136	0.8905150522321015	0.09762382415331673	0.9900613327812746	1.264718322662968	0.12670446416102288	1.235426989390998	1.6487362256922313	0.0902717527338484	0.9899464155731346	1.6792419754197576	0.04844162542890692	1.0784959829459753	1.6697633349478402	0.14111442645477773	1.3358374050983723	1.6921507344481062	0.22421561240503643	0.5280798704426756	0.3251637650069729	0.23066886443627033	0.3857754544706975	0.1292913422432337	0.2125961491279311	0.39888839337675375	0.25144095185861337	0.3901186485580749	0.5859158899372529	0.4102358916914879	0.4975279444235151	0.5768253543716695	0.6769349907847761	0.46430416897513105	0.4011120925867191	0.5473066433620299	0.4031077592110317	0.3004273942935467	0.43897332308847425	0.4013217532819716	0.2775310207995882	0.4428589764629167	0.40761092426613904	0.2971390143753332	0.4907627348342309	0.06628690282652565	0.5952676795634568	0.365470081199558	-0.08172420964796993	0.7616899466491556	0.5899040510454081	-0.08406296279496829	0.5069157166595204	0.4811469678834757	-0.05912901134384552	0.40997223791749815	0.4074378125430592	-0.07899520839735635	0.4185911218141534	0.4023883381589599	-0.07622248529376341	0.4175576699349313	0.46458497879178756
429	7.15	0.2948196039942877	0.7564218545184578	0.907601147019927	0.2583102036071843	0.9335974163546485	1.2758654865407928	0.24208010029589225	1.2273469371454164	1.652502613274993	0.21757829600333747	0.9569215089338877	1.6834250225155156	0.25880211247412876	1.0401964090731015	1.696091458031581	0.24269324332840095	1.312835415997217	1.6814757117364232	0.07249572663552804	0.816745104163041	0.8905508388978933	0.09689586579516186	0.986186351661305	1.259884424895182	0.12686014291241152	1.2354040500500858	1.6487318709764374	0.0926651851913069	1.0071504104614526	1.6861905872757463	0.047289258541481576	1.0814101757376535	1.6742842352159533	0.14094174809512514	1.3342126839119972	1.6916932118706198	0.22394748243887536	0.5170407603908194	0.32858667243803913	0.2309149736018415	0.38628146671878544	0.12957380935858775	0.2166962291993848	0.4002081260917031	0.25099208611873747	0.3856115942104131	0.5744574076161201	0.41351719574389256	0.4930130274621999	0.5659368040418769	0.6787732736979103	0.46449036904915747	0.4003066444799616	0.543667966355519	0.39897973746053866	0.300420046375902	0.4460443935656608	0.40134944092271535	0.2800051750210363	0.448197519886231	0.4037213025652068	0.29729810620388136	0.49110934155133784	0.06643844645399385	0.5981242461918891	0.3689852803694112	-0.08141031504020381	0.745041538084096	0.5929488448156963	-0.08402870658064028	0.5066171235436886	0.4812146641598327	-0.05328678928210713	0.386574661635403	0.4145249734739756	-0.0708235342016522	0.39444330033134795	0.4092068878275674	-0.07847226935376757	0.4581934837710854	0.46202823451542896
430	7.166666666666667	0.30234658427046485	0.7414117379880124	0.9086727271216198	0.2583198236766868	0.9335556510705614	1.2759196581025531	0.24203074924070775	1.227536601968289	1.6526158892980873	0.2176931802662289	0.9573151844997966	1.6836413692144236	0.2622478626389095	1.022535063556148	1.6895342191972986	0.242630725583258	1.313288440870587	1.681750140655528	0.07673098358771131	0.8022415031465764	0.8918675806708817	0.09690958881157155	0.9863122121285364	1.25983221569609	0.1268598855652865	1.2354619045110564	1.6486770884971025	0.09387472419625245	1.0047856905415182	1.6817679903190754	0.05172621811471956	1.0942843984654789	1.672275477840837	0.14131120617434678	1.336103237054769	1.6921535932315632	0.22049035261012032	0.5412048129602396	0.321418642915223	0.23138198948246164	0.3887751564058808	0.13199670945897238	0.2171908740621766	0.40213447969253757	0.2537960161582373	0.3905009936483881	0.585415323399929	0.4105516314045452	0.4912054125601281	0.5782092373513883	0.6729138329874278	0.46906707266190345	0.4103781735165526	0.5415445664155891	0.39950277611508134	0.3060155321880745	0.45945982946389263	0.4066005546048896	0.29761756200574424	0.4599228340658636	0.407857351042179	0.309701446671921	0.4995716656474448	0.06664796459239883	0.6018321350519782	0.37603072711198554	-0.08451278357552182	0.7309134392642547	0.5956407254681912	-0.08459843580230797	0.5082228532252471	0.4844678857383821	-0.04900928371459407	0.37735677948125623	0.41736750497347147	-0.0632178069738764	0.3949560614711433	0.40895408863583427	-0.0736210805926766	0.4469038775498039	0.46520591130638994
431	7.183333333333334	0.30230389361111953	0.7415326295461302	0.9086174031806148	0.26202426918502886	0.9445394690954069	1.2724546178910034	0.24202974302029612	1.2273383757058056	1.6525229136097812	0.2124923675761876	0.939751450791801	1.6771572086403133	0.2622729549386887	1.0224254107339792	1.6894572918931658	0.24258462630901337	1.3131901723632264	1.6818067233155904	0.07675294604366367	0.8023080768983486	0.8919457453205641	0.09691374112514425	0.9861339301724389	1.2599397017939769	0.1267969856151069	1.2350974604612919	1.6486447392661994	0.09271282688517289	1.0068430203410745	1.686324283998319	0.05778926008244401	1.0927181062994982	1.6805346495990097	0.14117192291146935	1.3352319729301807	1.6919154446789104	0.21667651048665193	0.5540186605369607	0.3176352673687737	0.23557120562793213	0.3899975836666481	0.13152489069434245	0.22108320003149828	0.4127889468666665	0.2502701062103237	0.38581996085783377	0.573794778101203	0.4137502085166271	0.49112103292654957	0.5783082542456196	0.6727911766010851	0.46961132908167214	0.4142915253940454	0.547375522671986	0.39795558700358413	0.32049830122984235	0.4587765938982549	0.40493085634814197	0.31193193495524535	0.46309666160630564	0.4032106043786885	0.30215132230495617	0.5068870338361271	0.06689771695293989	0.6039329341949781	0.3753593795120234	-0.088980115000088	0.7286420673622981	0.5960490772765786	-0.08893277079237348	0.5190998866949107	0.4781149251919311	-0.04236509799706822	0.39314724573319854	0.4213830538875975	-0.05896877669128108	0.3961204518814	0.40855016569607594	-0.06882002907438875	0.43464485006272413	0.46832170409512913
432	7.2	0.2991578381305331	0.7564822979937211	0.9073453883327334	0.25731849832634485	0.9299460272867316	1.2676162083752396	0.2429845079968676	1.22443408760511	1.6478399162154038	0.2119058742116939	0.9360684304216	1.6679589233450622	0.2581948842467394	1.0402314501648706	1.6921538154240336	0.24627638068142896	1.2937047141752123	1.6788643278931354	0.07689975249389912	0.8025029251267489	0.8918454658429341	0.0971530488777325	0.9867239659131127	1.2595946168648637	0.12685517620952813	1.2354293291867882	1.6486133563996965	0.09365594151551707	1.0051991765692414	1.6777202831991793	0.0517119753889666	1.095625884608713	1.672807761053547	0.14089504992977672	1.3349361521196026	1.691985170251384	0.2200583250762309	0.54082953196657	0.3213352308272752	0.2391828791402608	0.3979329865801434	0.12511034748572702	0.221101074736159	0.41193170928499007	0.24694228213904595	0.38577788018037024	0.573888217912274	0.41379421702079433	0.49051199275799007	0.5800151501560362	0.675890635978071	0.4735056230132878	0.4160848590191594	0.5505524835169721	0.39970179374618625	0.3082998061801677	0.4624894598064037	0.4001073852106346	0.3097637407598273	0.46437371191182625	0.4030158192993303	0.3025164734423503	0.5084181125305175	0.07002474124462855	0.613917428841928	0.37226909386791734	-0.08880088674292583	0.7289720673550886	0.5999038469797303	-0.08043381480780551	0.5123999743789044	0.4872520488680683	-0.03479600660340419	0.3950247340036125	0.42080030813125663	-0.054415520017044056	0.38824501630904024	0.4144499457451172	-0.07322041762452382	0.44699559052908133	0.46506271036694874
433	7.216666666666667	0.30246715770423477	0.7413582943309727	0.9086774653035239	0.26632825933397314	0.9460889906020238	1.2683159253484397	0.24191345139709636	1.227097085860031	1.6524985746967127	0.21517667312132926	0.9525523640089871	1.675363291082424	0.26179707218261794	1.0219820875470325	1.6894842273334212	0.2423560870678473	1.3129268838383295	1.6817773724180936	0.07694760709841847	0.8024392909457511	0.8957079312920531	0.09706638475648005	0.9863446758401736	1.2598323635844058	0.12688971241075306	1.2350996815264368	1.6484868450780301	0.09369112917031404	1.005243547164165	1.6775803983268396	0.05175216321908121	1.0950246411022564	1.6725013978342307	0.14037726174753282	1.3333491717929835	1.6915733850577865	0.2200550598181296	0.5411111111541611	0.3211878447225162	0.23932724111747927	0.39994659843724306	0.1276194153369611	0.2238880772608698	0.3980390309133026	0.248186696993287	0.38586514850067566	0.5736888021383799	0.4139277072119802	0.48918675999852607	0.5973641092538322	0.6763784012910498	0.47344945631837326	0.41631778021731475	0.5505594674289798	0.3982574949643628	0.32257672525087605	0.4614697228221287	0.4007704406371774	0.3124192238260547	0.4667027669974135	0.4073789648782027	0.31332003657121393	0.5089615308788313	0.06662234541175938	0.6019047254258111	0.37600205892772603	-0.09193559477908017	0.7148843912551172	0.6025842880810082	-0.08016246573601879	0.5077971826184786	0.4773108812036583	-0.03106374626473067	0.3962386504979237	0.4199411469810749	-0.0508781882578482	0.3950205463391855	0.40547390738750405	-0.06872761420115667	0.43316081529514683	0.46431468127700626
